<svg xmlns="http://www.w3.org/2000/svg" width="1104.192" height="93.811" viewBox="0 0 1104.192 93.811">
  <g id="mv-text" transform="translate(-383.717 -331.613)">
    <path id="パス_1832" data-name="パス 1832" d="M405.138,395.219c-.77,0-1.318.659-1.756,1.534-8.024,14.831-15.268,22.079-17.029,22.079-1.207,0-2.636-1.213-2.636-2.088a.8.8,0,0,1,.221-.548c7.692-7.8,14.5-19.554,16.364-27.135.111-.543.221-.764.443-.764a2.653,2.653,0,0,1,.77.221c.543.105,6.806,2.3,6.806,4.718,0,1.1-1.318,1.982-2.963,1.982Zm4.945,24.272c.105-6.036.548-18.014.548-27.246,0-3.622-.111-6.806-.221-9.115l-.327-3.3-13.18,2.2c-.554.111-1.323,1.977-2.309,1.977-1.982,0-3.517-7.028-3.517-7.138,0-.554.327-.554.659-.554a22.8,22.8,0,0,0,2.963.111c2.309,0,5.272-.111,8.683-.332,6.036-9.226,14.5-24.161,16.475-30.973.221-.881.111-1.207.77-1.207,1.977,0,7.914,2.858,7.914,5.272,0,.991-1.213,1.645-2.857,1.645-.992.111-1.65.221-2.642,1.761-3.511,6.042-10.322,16.364-15.046,23.065,4.94-.543,10.212-1.2,14.719-1.866a27.024,27.024,0,0,0-4.508-6.153c-.105-.216-.216-.327-.216-.548a2.447,2.447,0,0,1,2.087-1.977c1.1,0,4.945,3.738,7.138,6.812,6.374-8.462,18.236-28.232,19.776-38.887.105-.77.221-.991.764-.991,1.872,0,8.351,1.866,8.351,4.286,0,.986-1.207,1.65-2.963,1.872-1.213.105-1.65.98-2.2,2.082l-2.63,5.161h11.2a3.032,3.032,0,0,0,2.525-1.318c.659-.548,1.207-1.207,1.983-1.207,1.207,0,6.147,3.738,6.147,5.6,0,.991-.875,1.866-2.631,2.415-1.429.443-1.871.216-2.531,1.866a91.422,91.422,0,0,1-9.232,16.807c7.255,8.462,18.236,15.052,33.4,16.918.548,0,.764.554.764,1.213,0,.77-.327,1.645-.875,1.75-1.318.222-6.263,1.108-8.788,3.2a1.294,1.294,0,0,1-.764.216c-2.42,0-15.711-5.383-26.366-19.554-6.6,8.678-14.836,16.7-24.5,22.079,3.079,3.627,3.622,5.82,3.622,7.581,0,2.414-1.2,4.175-2.747,4.175-.98,0-2.193-.886-2.962-3.3a32.982,32.982,0,0,0-7.908-12.958,1.177,1.177,0,0,1-.327-.775,2.449,2.449,0,0,1,2.088-2.082,1.527,1.527,0,0,1,.653.222,39.908,39.908,0,0,1,4.619,3.948c9.558-5.377,18.015-14.276,24.278-23.287a54.719,54.719,0,0,1-6.485-14.166,112.923,112.923,0,0,1-13.955,20.54c1.1,2.747,1.213,3.622,1.213,4.4,0,2.525-1.318,4.281-2.642,4.281-1.1,0-2.193-1.1-2.852-3.622a18.121,18.121,0,0,0-.991-3.3l-7.354,1.54c.548.222.77.443.77.77,0,.437-.443.991-1.213,1.429a1.838,1.838,0,0,0-1.1,1.755c-.111,2.525-.111,5.272-.111,8.13,0,9.447.332,20.324.875,28.559a3.263,3.263,0,0,1-3.4,2.857,2.365,2.365,0,0,1-2.636-2.42Zm.327-86.783c.438.111,8.129,1.866,8.129,4.176,0,.991-.991,1.761-2.857,1.977-.875,0-1.318.548-1.755,1.65-2.526,6.036-7.138,15.268-9.447,19.659.437.332,3.406,2.42,3.406,5.715,0,1.872-.991,3.295-2.193,3.295-.775,0-1.761-.548-2.641-1.977a26.109,26.109,0,0,0-9.337-8.789.737.737,0,0,1-.443-.77c0-.881.886-2.193,1.761-2.193a32.723,32.723,0,0,1,6.263,2.63c2.414-5.488,7.687-18.12,8.124-24.383.116-.77.116-.991.665-.991Zm48.666,86.235c-5.715-6.374-12.416-10.217-20.213-13.617a.879.879,0,0,1-.554-.88c0-1.1,1.318-2.858,2.531-2.858.111,0,25.707,8.235,25.707,16.918a2.929,2.929,0,0,1-2.858,3.184C462.371,421.69,460.837,420.92,459.076,418.943Zm-1.755-20c-3.627-4.829-9.342-8.561-12.853-10.544a.989.989,0,0,1-.443-.875,2.466,2.466,0,0,1,2.2-2.309c.222,0,17.024,6.047,17.024,13.075,0,1.756-.875,2.963-2.3,2.963C459.951,401.255,458.633,400.6,457.32,398.946Zm-11.1-49.425-.437.875a47.872,47.872,0,0,0,6.585,14.83c5.167-8.346,7.36-14.5,7.36-15.163,0-.543-.543-.543-1.1-.543Z" transform="translate(0 1.978)" fill="#c4c4c4"/>
    <path id="パス_1833" data-name="パス 1833" d="M411.544,363.309a26.158,26.158,0,0,0,.985-3.3,7.219,7.219,0,0,0,.111-1.539,6.575,6.575,0,0,0-1.429-4.17,8.408,8.408,0,0,1-1.866-4.834c0-5.388,8.9-5.6,11.646-5.6a57.5,57.5,0,0,1,5.82.326h.659l.111-.11c0-.111-.111-.216-.332-.327a8.834,8.834,0,0,0-1.866-1.318,12.358,12.358,0,0,0-2.414-1.429c-3.3-1.977-5.494-3.627-5.494-5.383a1.972,1.972,0,0,1,1.977-2.088,2.988,2.988,0,0,1,2.525,1.645,8.444,8.444,0,0,0,3.079,2.42c1.423.77,3.289,1.65,5.05,2.641,9.337,4.94,10.107,8.894,10.107,10.428,0,2.2-1.429,2.968-2.3,2.968a4.071,4.071,0,0,1-2.309-.986c-4.835-4.286-14.282-5.056-17.023-5.056-2.858,0-5.278.548-5.278,2.2,0,.77.548,1.761,1.761,3.079,2.525,2.631,3.4,4.392,3.4,6.042a6.462,6.462,0,0,1-.986,3.184c-1.1,1.755-5.715,10.876-5.715,17.682a11.493,11.493,0,0,0,1.872,6.479c.111.332.332.659.548.659.105,0,.327-.105.548-.437,7.249-8.351,19.665-16.032,31.638-16.032,10.544,0,21.2,6.479,21.2,15.705,0,4.4-2.526,9.226-8.351,13.845-11.535,9.115-32.95,10.649-35.365,10.649-3.3,0-4.729-1.207-4.729-2.636,0-2.636,4.07-2.636,4.4-2.636a11,11,0,0,1,1.761.221,17.707,17.707,0,0,0,2.525.216c10.649,0,33.061-8.019,33.061-20.429,0-6.922-7.36-11.1-14.72-11.1-13.839,0-27.241,13.734-29,20.545-.221.875-.443,1.755-.991,2.088a1.663,1.663,0,0,1-1.213.438c-3.289,0-7.576-9.226-7.576-15.268,0-3.406.77-7.913,2.747-14.5Z" transform="translate(107.324 8.73)" fill="#c4c4c4"/>
    <path id="パス_1834" data-name="パス 1834" d="M458.813,342.622a4.25,4.25,0,0,1,2.853-1.1c.991,0,3.405.222,3.405,2.088,0,2.309-5.051,4.4-11.2,6.7-5.715,11.208-13.186,26.7-19.443,42.624-1.324,3.19-3.954,4.835-5.936,4.835a2.2,2.2,0,0,1-2.3-2.525,10.862,10.862,0,0,1,1.977-5.277,368.065,368.065,0,0,0,20.108-37.347c-3.633,1.323-9.564,3.411-13.734,3.411-7.028,0-10.876-6.047-10.876-8.9,0-.991.332-1.645,1.207-1.645a5.407,5.407,0,0,1,2.414.875c2.088,1.324,6.374,4.286,10.771,4.286,3.733,0,8.346-1.534,12.41-3.295.332-.659,2.2-4.5,2.2-6.153,0-2.088-2.42-2.636-4.618-2.636-.438,0-.88.111-1.318.111-.543,0-1.756-.332-1.756-1.318,0-1.429,2.193-3.732,4.94-3.732a3.833,3.833,0,0,1,1.545.216c1.207.327,3.843,1.429,5.156,1.872,2.088.764,2.747,1.756,2.747,2.963a9.83,9.83,0,0,1-1.534,4.175l-.77,1.429a2.815,2.815,0,0,0,.659-.554Zm32.181,19.116c-4.613,0-19.222,5.71-19.222,16.148a17.509,17.509,0,0,0,.77,4.718c.659,2.087,1.318,3.849,1.761,5.6a15.684,15.684,0,0,1,.659,4.613,79.279,79.279,0,0,1,18.557,6.485c2.531,1.313,3.517,3.3,3.517,4.829a2.765,2.765,0,0,1-2.852,3.079,6.374,6.374,0,0,1-4.176-1.761,55.931,55.931,0,0,0-15.162-8.345c-1.423,7.36-7.028,10.871-13.507,10.871-8.24,0-16.259-5.709-16.259-10.212,0-3.627,4.5-6.917,14.83-6.917a59.741,59.741,0,0,1,9.664.875c-.105-1.207-.216-2.42-.437-3.622-1.534-6.6-1.534-6.817-1.534-8.573,0-5.931,3.184-11.751,11.857-18.015a34.375,34.375,0,0,0,3.633-2.525c.543-.438.875-.77.875-1.1,0-.881-3.3-1.755-6.7-1.755a16.956,16.956,0,0,0-7.908,1.755,3.363,3.363,0,0,1-1.65.443,2.015,2.015,0,0,1-2.088-2.088c0-3.517,9.226-4.176,12.416-4.176,8.9,0,18.784,2.852,18.784,7.581,0,1.318-1.213,2.193-3.738,2.193-.438,0-.875-.105-1.318-.105Zm-32.075,32.513c-6.485,0-9.774,1.318-9.774,3.3,0,2.63,6.7,6.036,11.314,6.036,4.281,0,7.908-2.414,8.9-8.124A47.5,47.5,0,0,0,458.918,394.251Z" transform="translate(181.25 9.094)" fill="#c4c4c4"/>
    <path id="パス_1835" data-name="パス 1835" d="M453.091,357.66c0,1.545.105,3.412.221,5.5.875,12.737,8.456,18.9,11.314,18.9.875,0,1.429-.659,2.3-2.309,2.636-5.051,5.388-11.209,9.115-18.015a2.391,2.391,0,0,1,2.088-1.213,3.383,3.383,0,0,1,1.1.222,1.965,1.965,0,0,1,1.1,1.755,2.949,2.949,0,0,1-.332,1.213c-3.3,5.05-7.914,17.134-7.914,19.659a2.512,2.512,0,0,0,.227.991c.216.659.659,1.1,1.1,2.088a6.3,6.3,0,0,1,.438,1.645c0,1.977-2.2,2.636-3.843,2.636-6.479,0-20.213-7.249-22.085-27.13a105.642,105.642,0,0,1-.438-11.424c0-1.1.111-2.2.111-3.184,0-3.843-.881-6.263-3.406-8.019a2.751,2.751,0,0,1-1.423-2.309c0-1.977,1.972-2.088,2.415-2.088,1.207,0,2.525.881,5.6,4.724,1.65,2.526,2.636,4.392,2.636,6.374,0,.659,0,2.631-.222,4.834C453.2,353.933,453.091,355.573,453.091,357.66Zm58.989,13.734a4.073,4.073,0,0,0-2.193-.437c-.332,0-1.323,0-7.913,1.213-.222,0-.438.105-.659.105-1.318,0-1.866-.77-1.866-1.534a1.846,1.846,0,0,1,1.318-1.767c1.428-.437,5.82-1.423,8.788-2.3,1.761-.548,2.3-1.423,2.3-2.415,0-6.922-6.042-12.41-8.567-14.5a8.394,8.394,0,0,0-1.866-1.324c-.659-.327-1.318-.548-2.088-.986a2.671,2.671,0,0,1-1.977-2.3,2.171,2.171,0,0,1,2.415-1.983c3.079,0,18.457,10.55,18.457,23.071,0,.991,0,6.258-3.295,6.258A5.156,5.156,0,0,1,512.08,371.394Z" transform="translate(267.963 22.503)" fill="#c4c4c4"/>
    <path id="パス_1836" data-name="パス 1836" d="M487.933,350.613a2.547,2.547,0,0,0-1.318,2.2v.326c.222,4.292.437,8.467.437,12.748,0,21.31-4.286,41.523-22.738,59.1a1.627,1.627,0,0,1-1.207.438c-1.318,0-2.858-1.1-2.858-2.31a1.535,1.535,0,0,1,.554-.986c14.935-13.617,20.429-33.72,20.429-54.155a129.194,129.194,0,0,0-2.309-24.062,1.458,1.458,0,0,0-.105-.659c.105-.327.222-.659.659-.659,1.2,0,7.249,2.42,9.226,4.07h23.176a57.219,57.219,0,0,0-1.207-13.734c0-.222-.111-.554-.111-.77,0-.327.111-.548.88-.548.875,0,10.323.659,10.323,2.968,0,.875-1.423,1.972-3.289,2.858-.991.437-1.324.875-1.324,9.226h19.776a4.1,4.1,0,0,0,3.3-1.539,41.282,41.282,0,0,1,3.074-3.738c.991-.875,1.65-1.318,2.309-1.318,2.747,0,8.9,6.152,8.9,8.788,0,.991-.881,1.756-2.969,1.756Zm71.953,62.511c.875,0,1.318.88,1.318,1.645s-.222,1.429-.77,1.54c-1.429.327-3.954,2.309-5.383,3.843a2.331,2.331,0,0,1-1.65.77c-4.613.443-9.331.659-13.839.659-20.213,0-31.637-4.286-38.776-13.4-10.544,12.853-24.6,16.037-25.158,16.037a2.581,2.581,0,0,1-2.309-2.309,1.258,1.258,0,0,1,.991-1.2,47.81,47.81,0,0,0,23.619-16.918,38.674,38.674,0,0,1-3.295-9.669c-.991,2.309-3.295,6.369-3.295,7.692,0,1.423-.111,2.631-1.429,2.631-2.2,0-5.494-2.088-5.821-2.3-.221-.327-.438-.548-.438-.77s.105-.443.543-.659c3.633-2.747,8.789-10.433,8.789-13.186a2.594,2.594,0,0,1,2.747-2.747,2.858,2.858,0,0,1,2.968,2.863c0,1.313-.77,1.866-.77,2.963v.659a34.644,34.644,0,0,0,2.531,8.683,49.734,49.734,0,0,0,6.806-18.79v-.327c0-.332-.105-.548-.881-.548h-6.917l-.77,1.429a4.714,4.714,0,0,1-3.954,1.972c-1.207,0-2.2-.438-2.2-1.429a3.219,3.219,0,0,1,.659-1.645c1.539-2.309,9.447-15.6,9.447-16.807,0-.221-.105-.327-.548-.327h-2.088a32.181,32.181,0,0,0-5.936.659c-1.971.438-4.94-3.516-4.94-4.729,0-.327.111-.543.548-.543h.222a92.2,92.2,0,0,0,10.217.875h1.866c1.318,0,1.429-.332,2.309-1.1.653-.659,1.1-1.207,1.866-1.207,1.534,0,5.821,3.073,5.821,4.719,0,.77-.77,1.539-2.636,2.2-1.534.554-1.534.554-7.914,12.305h4.619c1.539,0,1.539-.437,2.636-1.318a2.486,2.486,0,0,1,1.65-.77,3.884,3.884,0,0,1,1.429.327c1.429.659,4.718,2.747,4.718,4.176a1.541,1.541,0,0,1-.216.659c3.849.332,7.033.438,10.217.438h.986c0-.105,0-9-.548-13.4-4.281.886-12.853,2.42-13.839,2.42-1.213,0-1.65-1.208-1.65-2.309,0-.654.216-1.312.549-1.312,23.071-3.954,29.55-8.462,29.771-8.573a1.744,1.744,0,0,1,.986-.437.939.939,0,0,1,.665.327c1.755,1.65,4.175,4.286,4.175,6.374a1.509,1.509,0,0,1-1.65,1.65,4.378,4.378,0,0,1-2.42-.886,2.9,2.9,0,0,0-1.65-.659A10.6,10.6,0,0,0,540,363.8c-1.534.332-3.406.875-5.709,1.324.548.321.77.654.77.98,0,.554-.554,1.1-1.54,1.545-1.207.659-1.317.764-1.317,12.516h5.931a3.025,3.025,0,0,0,3.079-1.534c3.622-4.065,4.17-4.4,4.829-4.4,2.747,0,8.019,5.6,8.019,8.135,0,.875-.764,1.534-2.526,1.534H532.1c0,5.826.106,11.751.106,16.37h4.065a3.178,3.178,0,0,0,2.968-1.434c1.318-1.639,3.406-4.391,4.5-4.391,2.747,0,7.576,6.042,7.576,8.024,0,.875-.659,1.534-2.3,1.534H527.479c-3.074,0-5.82.438-11.752,1.213-1.866.321-5.056-4.292-5.056-5.6,0-.327.111-.443.332-.443h.111a109.652,109.652,0,0,0,15.379,1.1h.875c0-3.073.111-9.774.111-16.37a117.391,117.391,0,0,0-12.743.991h-.216a4.2,4.2,0,0,1-2.088-1.213c-1.539,5.493-3.843,13.4-9.01,20.983,3.622,4.508,12.083,10.771,31.3,10.771a160.084,160.084,0,0,0,24.937-2.309Z" transform="translate(347.289 0)" fill="#c4c4c4"/>
    <path id="パス_1837" data-name="パス 1837" d="M520,339.82a6.942,6.942,0,0,1,2.193,4.945c0,5.494-15.262,29.328-22.516,37.785-1.755,2.2-3.3,3.627-5.167,3.627-2.963,0-11.419-6.59-11.419-18.015,0-15.705,16.037-32.186,39.546-32.186,20.983,0,33.282,13.18,33.282,27.241,0,21.753-25.812,30.763-41.849,30.763-3.954,0-5.715-1.213-5.715-2.641,0-1.645,2.088-2.858,5.161-2.858a11.29,11.29,0,0,1,1.977.116,13.938,13.938,0,0,0,2.2.111c6.7,0,31.859-5.383,31.859-25.6,0-10.982-8.567-23.287-28.232-23.287ZM488.47,367.177c0,6.917,4.613,11.973,6.479,11.973,2.747,0,21.863-29.661,21.863-36.583a3.849,3.849,0,0,0-.659-2.415C498.355,342.678,488.47,356.849,488.47,367.177Z" transform="translate(450.924 19.803)" fill="#c4c4c4"/>
    <path id="パス_1838" data-name="パス 1838" d="M542.866,365.415c-10.982,27.573-32.513,41.744-37.785,41.744-1.872,0-2.747-1.1-2.747-2.3,0-1.755,1.65-3.96,4.945-4.729,12.41-2.852,30.43-31.195,30.43-41.085,0-2.082-1.108-3.184-3.96-3.622-1.312-.222-1.761-.77-1.761-1.318,0-1.429,2.2-2.747,4.07-2.747a7.736,7.736,0,0,1,3.732,1.1c1.977.986,3.733,2.415,5.057,3.074a3.258,3.258,0,0,1,1.318,1.429c4.5-3.516,14.609-12.964,14.609-14.5,0-.327-.659-.327-1.207-.327-10.877.327-29.334,3.406-37.242,4.835a13.987,13.987,0,0,1-2.088.221c-6.59,0-13.845-4.508-13.845-10.992a1.705,1.705,0,0,1,1.761-1.861,2.653,2.653,0,0,1,1.434.438c1.755.986,4.059,2.636,6.368,3.959,2.3,1.423,4.718,2.525,6.7,2.525,5.272,0,30.541-3.411,38.443-3.849a3.689,3.689,0,0,0,1.762-.764,4.149,4.149,0,0,1,2.852-1.545c1.545,0,8.683,1.866,8.683,4.175,0,1.1-1.1,2.2-3.079,3.184a21.565,21.565,0,0,0-5.383,3.738c-3.073,2.636-6.036,5.488-9.226,8.019-4.94,3.954-9.448,7.033-11.646,7.582A36.2,36.2,0,0,0,542.866,365.415Z" transform="translate(538.263 12.334)" fill="#c4c4c4"/>
    <path id="パス_1839" data-name="パス 1839" d="M578.42,348.929c-4.175-.111-8.13-.111-12.083-.111a217.788,217.788,0,0,0-28.78,1.645,60.555,60.555,0,0,1-6.375.77c-4.5,0-12.3-5.488-12.3-10,0-1.977.986-2.3,1.756-2.3a2.58,2.58,0,0,1,1.429.548c4.059,2.968,8.346,5.493,11.425,5.6,5.161,0,31.632-1.318,46.462-1.755,6.7,0,11.535.553,11.535,2.641,0,1.312-2.415,2.631-6.369,2.963Z" transform="translate(613.359 33.217)" fill="#c4c4c4"/>
    <path id="パス_1840" data-name="パス 1840" d="M593.336,358.663c-4.618,0-10.106.543-15.495,1.1-9.226,32.734-34.379,47.343-39.324,47.343-1.207,0-2.53-.548-2.53-2.2,0-1.755,1.65-3.732,4.507-4.391,7.914-1.977,25.263-17.8,31.305-39.988-5.931.769-11.314,1.65-14.83,2.2a15.15,15.15,0,0,1-2.963.332c-1.755,0-3.184-.548-5.383-2.3-.548-.449-1.1-.991-1.761-1.434-1.534-1.318-3.184-2.963-3.184-5.267,0-1.872.659-2.42,1.429-2.42a2.983,2.983,0,0,1,1.428.438c.77.437,1.539,1.1,2.415,1.65,4.07,3.516,6.042,4.059,7.581,4.059,2.525,0,9.121-.875,16.364-1.645A50.753,50.753,0,0,0,574,346.463v-1.755c0-3.3-.776-4.835-5.937-6.042-1.207-.221-2.2-.986-2.2-1.872,0-1.1,1.977-2.741,4.5-2.741,2.309,0,9.448,3.627,9.78,3.849a2.87,2.87,0,0,1,1.318,2.409,4.491,4.491,0,0,1-.111,1.213c-.216,1.429-.875,3.3-1.207,5.931a44.139,44.139,0,0,1-1.318,7.908c5.494-.548,10.765-1.1,13.95-1.207.875,0,1.318-.659,1.866-1.318a2.606,2.606,0,0,1,1.983-.875c2.963,0,7.9,2.631,7.9,4.5,0,.554-.438.991-.98,1.429a21.2,21.2,0,0,0-1.872,1.429,2.7,2.7,0,0,0-1.318,1.65c-.88,4.281-1.429,10.655-2.415,17.245-2.088,13.623-6.7,25.817-17.577,25.817-6.59,0-13.955-4.835-13.955-6.485a2.376,2.376,0,0,1,2.309-2.088,1.133,1.133,0,0,1,.548.117c3.406,1.423,7.033,2.63,10.217,2.63,5.826,0,10.106-3.843,12.964-21.088.88-5.937,1.2-11.973,1.756-17.472,0-.764-.111-.98-.554-.98Z" transform="translate(690.97 11.072)" fill="#c4c4c4"/>
    <path id="パス_1841" data-name="パス 1841" d="M598.872,400.789c0,4.175-.659,8.351-3.3,8.351-2.3,0-3.949-2.526-3.949-6.812a24.665,24.665,0,0,1,.659-5.272c.875-4.065,1.318-10.328,1.65-28.343a19.414,19.414,0,0,0-.991-6.6c-14.614,18.131-33.614,30.652-37.9,30.652a1.893,1.893,0,0,1-2.087-2.087,4.817,4.817,0,0,1,3.516-4.287c12.632-3.4,41.085-35.259,41.085-44.6,0-1.755-1.213-2.852-4.286-3.4-.986-.221-1.424-.764-1.424-1.318,0-1.207,1.424-2.963,3.949-2.963,3.732,0,11.646,4.392,11.646,6.806,0,.659-.332,1.761-2.857,4.613a31.052,31.052,0,0,0-2.415,3.411,96.318,96.318,0,0,1-6.6,9.774c1.872,1.313,4.286,3.954,4.286,6.258a3.009,3.009,0,0,1-.332,1.429c-.654,1.434-.875,9.447-.875,17.245,0,7.144.221,14.177.221,15.6Z" transform="translate(767.958 11.345)" fill="#c4c4c4"/>
    <path id="パス_1842" data-name="パス 1842" d="M581.006,378.186c-2.747-20-4.065-21.753-9.774-22.19a2.139,2.139,0,0,1-2.088-1.866v-.221c0-2.3,3.948-3.184,5.494-3.184,4.17,0,6.806,3.184,8.13,6.59a18.343,18.343,0,0,0,5.488.659c2.969,0,8.573-.327,10.987-.548.111-1.207.111-2.088.111-10.771-.111-2.741-.886-4.718-5.5-5.272a1.572,1.572,0,0,1-1.534-1.645c0-1.1.77-3.184,3.844-3.184.88,0,7.692,2.3,8.462,2.525,1.65.659,2.193,1.65,2.193,2.747a10.313,10.313,0,0,1-.764,3.3c-.77,2.642-.991,6.7-1.208,11.867,5.05-.438,10-.991,14.936-1.323a2.485,2.485,0,0,0,1.429-.437,10.143,10.143,0,0,0,1.1-.764,3.054,3.054,0,0,1,2.088-.886,2.137,2.137,0,0,1,.77.111c1.54.222,7.471,3.406,7.471,5.389,0,.764-.66,1.755-2.31,2.747a1.924,1.924,0,0,0-.764.543,7.846,7.846,0,0,0-1.761,1.983c-8.456,32.075-39.761,47.232-45.482,47.232-.98,0-2.963-.437-2.963-2.193,0-1.54,1.651-3.627,4.835-4.07,11.208-1.866,32.844-19.548,37.79-44.6,0-.221,0-.332-.443-.332-.548,0-27.684,2.088-30.647,2.42-1.429.111-2.636.221-3.511.221a9.924,9.924,0,0,1-3.3-.443c1.65,7.908,3.517,21.094,3.517,24.389,0,.986-.216,3.406-2.858,3.406-.548,0-3.844-.88-3.844-8.456a10.583,10.583,0,0,0,.111-1.872Zm51.74-26.255c-3.08-4.065-9.121-7.686-11.314-8.678a1.586,1.586,0,0,1-.991-1.539,1.867,1.867,0,0,1,.111-.77,2.17,2.17,0,0,1,1.977-1.1c.875,0,15.822,4.729,15.822,10.765,0,.549-.553,3.19-2.641,3.19A3.983,3.983,0,0,1,632.747,351.932Zm11.2-5.383a4.13,4.13,0,0,1-2.968-1.755c-3.295-3.954-9.448-7.365-11.751-8.351a1.658,1.658,0,0,1-.992-1.539,2,2,0,0,1,2.088-1.861c1.429,0,12.859,4.281,15.163,7.465a5.33,5.33,0,0,1,.985,2.963,3.318,3.318,0,0,1-.88,2.309A1.971,1.971,0,0,1,643.949,346.549Z" transform="translate(841.435 6.484)" fill="#c4c4c4"/>
  </g>
</svg>
