<svg width="26" height="26" viewBox="0 0 26 26" fill="none" xmlns="http://www.w3.org/2000/svg">
<path d="M12.6615 0.967854L9.03862 5.32065C8.80119 5.61084 9.00344 6.04172 9.37277 6.04172H16.6274C16.9968 6.04172 17.2078 5.61084 16.9616 5.32065L13.3387 0.967854C13.1628 0.756809 12.8374 0.756809 12.6615 0.967854Z" fill="#ADADAD"/>
<path d="M13.3385 25.6515L16.8999 21.2987C17.1373 21.0085 16.9351 20.5776 16.557 20.5776H9.43421C9.06488 20.5776 8.86263 21.0085 9.09126 21.2987L12.6526 25.6515C12.8285 25.8625 13.1539 25.8625 13.3297 25.6515H13.3385Z" fill="#ADADAD"/>
<path d="M25.3331 12.9798L21.1561 9.33053C20.8747 9.08431 20.4263 9.28656 20.4263 9.66468V16.9545C20.4263 17.3326 20.8747 17.5349 21.1561 17.2887L25.3331 13.6394C25.5353 13.4635 25.5353 13.1557 25.3331 12.9798Z" fill="#ADADAD"/>
<path d="M0.658283 13.6569L5.01108 17.2183C5.30127 17.4557 5.73215 17.2534 5.73215 16.8753V9.75257C5.73215 9.38324 5.30127 9.18099 5.01108 9.40962L0.658283 12.971C0.447239 13.1469 0.447239 13.4722 0.658283 13.6481V13.6569Z" fill="#ADADAD"/>
<path d="M20.5404 11.9688H5.45068V14.6068H20.5404V11.9688Z" fill="#ADADAD"/>
<path d="M14.3146 5.74268H11.6765V20.8324H14.3146V5.74268Z" fill="#ADADAD"/>
</svg>
