<svg width="26" height="23" viewBox="0 0 26 23" fill="none" xmlns="http://www.w3.org/2000/svg">
<path fill-rule="evenodd" clip-rule="evenodd" d="M3.10784 12.3294C3.04286 13.4901 3.03624 14.6733 3.04114 15.8721H5.48535V12.3019C5.48535 12.0656 5.70025 11.874 5.96535 11.874H9.80535C10.0704 11.874 10.2854 12.0656 10.2854 12.3019V22.0563C10.2854 22.2926 10.0704 22.4841 9.80535 22.4841H5.96535C5.70025 22.4841 5.48535 22.2926 5.48535 22.0563V18.3221H3.04938C3.00491 18.9582 2.4748 19.4604 1.82738 19.4604C1.15084 19.4604 0.602393 18.9119 0.602404 18.2354C0.602412 17.7748 0.599359 17.3032 0.596262 16.8247C0.586437 15.307 0.576162 13.7198 0.661673 12.1925C0.774617 10.1752 1.0578 8.14303 1.77887 6.32953C2.51002 4.49069 3.69475 2.87084 5.58139 1.72928C7.44951 0.598921 9.90237 0 13.0707 0C16.2452 0 18.6967 0.620611 20.5563 1.78155C22.4321 2.9526 23.5962 4.60525 24.3054 6.46019C25.0055 8.29132 25.2677 10.331 25.3613 12.3337C25.4314 13.8344 25.4079 15.3817 25.3858 16.8411V16.8411V16.8412V16.8412C25.3785 17.3202 25.3714 17.7898 25.3678 18.2451C25.3624 18.9216 24.8096 19.4657 24.1331 19.4603C23.489 19.4552 22.965 18.9539 22.9209 18.3221H20.5153V22.0563C20.5153 22.2926 20.3004 22.4841 20.0353 22.4841H16.1953C15.9302 22.4841 15.7153 22.2926 15.7153 22.0563V12.3019C15.7153 12.0656 15.9302 11.874 16.1953 11.874H20.0353C20.3004 11.874 20.5153 12.0656 20.5153 12.3019V15.8721H22.9492C22.9637 14.724 22.9668 13.5799 22.9139 12.4481C22.8254 10.5532 22.5818 8.81241 22.017 7.33513C21.4613 5.88165 20.6014 4.69797 19.2588 3.8598C17.9 3.01151 15.9387 2.45 13.0707 2.45C10.1965 2.45 8.22266 2.99469 6.84971 3.82543C5.49528 4.64497 4.62453 5.80368 4.05551 7.23476C3.47641 8.69118 3.21473 10.4203 3.10784 12.3294Z" fill="#ACACAC"/>
</svg>
