<svg width="26" height="24" viewBox="0 0 26 24" fill="none" xmlns="http://www.w3.org/2000/svg">
<path d="M8.95054 13.3901H5.52792C5.29164 13.3901 5.1001 13.5817 5.1001 13.818V23.5724C5.1001 23.8087 5.29164 24.0002 5.52792 24.0002H8.95054C9.18682 24.0002 9.37836 23.8087 9.37836 23.5724V13.818C9.37836 13.5817 9.18682 13.3901 8.95054 13.3901Z" fill="#ACACAC"/>
<path d="M20.4505 13.3901H17.0279C16.7916 13.3901 16.6001 13.5817 16.6001 13.818V23.5724C16.6001 23.8087 16.7916 24.0002 17.0279 24.0002H20.4505C20.6868 24.0002 20.8784 23.8087 20.8784 23.5724V13.818C20.8784 13.5817 20.6868 13.3901 20.4505 13.3901Z" fill="#ACACAC"/>
<path d="M1.84208 18.3615C1.78219 14.0918 0.430254 1.35107 13.0854 1.35107C25.7405 1.35107 24.1575 14.3998 24.1575 18.3615" stroke="#ACACAC" stroke-width="2.7" stroke-linecap="round" stroke-linejoin="round"/>
<path d="M2.27856 17.2231H5.71829" stroke="#ACACAC" stroke-width="2.7" stroke-linecap="round" stroke-linejoin="round"/>
<path d="M20.1272 17.2231H23.5669" stroke="#ACACAC" stroke-width="2.7" stroke-linecap="round" stroke-linejoin="round"/>
</svg>
