<svg xmlns="http://www.w3.org/2000/svg" width="99" height="75.386" viewBox="0 0 99 75.386">
  <g id="key-map" transform="translate(-8527 -4022.783)">
    <rect id="長方形_54" data-name="長方形 54" width="21" height="21" rx="4" transform="translate(8553 4037)" fill="#1d1d1d"/>
    <rect id="長方形_58" data-name="長方形 58" width="21" height="21" rx="4" transform="translate(8605 4037)" fill="#1d1d1d"/>
    <rect id="長方形_55" data-name="長方形 55" width="21" height="21" rx="4" transform="translate(8553 4063)" fill="#1d1d1d"/>
    <rect id="長方形_59" data-name="長方形 59" width="21" height="21" rx="4" transform="translate(8605 4063)" fill="#1d1d1d"/>
    <rect id="長方形_56" data-name="長方形 56" width="21" height="21" rx="4" transform="translate(8579 4063)" fill="#1d1d1d"/>
    <rect id="長方形_57" data-name="長方形 57" width="21" height="21" rx="4" transform="translate(8527 4063)" fill="#1d1d1d"/>
    <g id="グループ_650" data-name="グループ 650">
      <path id="パス_1730" data-name="パス 1730" d="M6.552,0l-.6-1.768H2.288L1.69,0H0L3.237-9.217H5.07L8.307,0ZM4.121-7.163,2.808-3.276H5.434Z" transform="translate(8534 4097)" fill="none" stroke="#000" stroke-linecap="round" stroke-width="2"/>
      <path id="パス_1728" data-name="パス 1728" d="M7.787-2.743a2.666,2.666,0,0,1-.214,1.118,2.744,2.744,0,0,1-.552.806,3.02,3.02,0,0,1-1.294.761A5.62,5.62,0,0,1,4.108.169,5.107,5.107,0,0,1,2.645-.046,3.3,3.3,0,0,1,1.352-.78a3.077,3.077,0,0,1-.689-.93A2.706,2.706,0,0,1,.39-2.925H2.106a1.472,1.472,0,0,0,.137.631,1.741,1.741,0,0,0,.344.5,1.465,1.465,0,0,0,.722.4,3.665,3.665,0,0,0,.825.1,3.636,3.636,0,0,0,.91-.11,1.412,1.412,0,0,0,.689-.383,1.832,1.832,0,0,0,.26-.358,1.1,1.1,0,0,0,.1-.526.9.9,0,0,0-.332-.76,1.747,1.747,0,0,0-.76-.332A8.5,8.5,0,0,0,3.978-3.9q-.559-.039-1.014-.117a3.471,3.471,0,0,1-.9-.273A2.548,2.548,0,0,1,1.319-4.8,2.368,2.368,0,0,1,.813-5.57,2.613,2.613,0,0,1,.624-6.591a2.26,2.26,0,0,1,.221-1,3.014,3.014,0,0,1,.585-.819A3.145,3.145,0,0,1,2.6-9.126a4.455,4.455,0,0,1,1.534-.26,4.472,4.472,0,0,1,1.424.227,3.055,3.055,0,0,1,1.15.67,3.221,3.221,0,0,1,.67.884,2.451,2.451,0,0,1,.266,1.079H5.928A1.327,1.327,0,0,0,5.8-7.014a1.593,1.593,0,0,0-.28-.423A1.453,1.453,0,0,0,4.9-7.8a2.536,2.536,0,0,0-.78-.13,3.241,3.241,0,0,0-.8.1,1.43,1.43,0,0,0-.7.4,1.324,1.324,0,0,0-.228.338,1.045,1.045,0,0,0-.084.442.9.9,0,0,0,.26.7,1.253,1.253,0,0,0,.676.306q.442.065.995.117t1.008.117a3.879,3.879,0,0,1,.981.28,2.72,2.72,0,0,1,.806.533,2.426,2.426,0,0,1,.546.8A2.638,2.638,0,0,1,7.787-2.743Z" transform="translate(8560 4097)" fill="none" stroke="#000" stroke-linecap="round" stroke-width="2"/>
      <path id="パス_1729" data-name="パス 1729" d="M8.333-4.615q0,.481-.032.968a5.417,5.417,0,0,1-.149.955,4.521,4.521,0,0,1-.332.9,3.158,3.158,0,0,1-.565.8,2.968,2.968,0,0,1-1.125.734A4.1,4.1,0,0,1,4.667,0H1.079V-9.217H4.667a4.1,4.1,0,0,1,1.463.253,2.968,2.968,0,0,1,1.125.734,3.2,3.2,0,0,1,.565.793,4.369,4.369,0,0,1,.332.9,5.417,5.417,0,0,1,.149.956Q8.333-5.1,8.333-4.615Zm-1.7,0q0-.312-.013-.663a4.68,4.68,0,0,0-.078-.7,3.286,3.286,0,0,0-.2-.656,1.721,1.721,0,0,0-.377-.559A1.8,1.8,0,0,0,5.4-7.566a1.835,1.835,0,0,0-.734-.143H2.756v6.2H4.667A1.835,1.835,0,0,0,5.4-1.651a1.8,1.8,0,0,0,.566-.377,1.721,1.721,0,0,0,.377-.559,3.286,3.286,0,0,0,.2-.657,4.7,4.7,0,0,0,.078-.7Q6.63-4.3,6.63-4.615Z" transform="translate(8585 4097)" fill="none" stroke="#000" stroke-linecap="round" stroke-width="2"/>
      <path id="パス_1727" data-name="パス 1727" d="M2.756-7.7v2.47H6.942V-3.7H2.756V0H1.079V-9.217h6.37V-7.7Z" transform="translate(8612 4097)" fill="none" stroke="#000" stroke-linecap="round" stroke-width="2"/>
      <path id="パス_1732" data-name="パス 1732" d="M6.344,0,4.81-3.484H2.769V0H1.079V-9.217H4.966a3.84,3.84,0,0,1,1.423.24,2.919,2.919,0,0,1,1,.637,2.486,2.486,0,0,1,.585.91,3.088,3.088,0,0,1,.189,1.073A2.82,2.82,0,0,1,7.7-4.738a2.507,2.507,0,0,1-1.228.968L8.164,0Zm.143-6.357a1.374,1.374,0,0,0-.1-.527,1.357,1.357,0,0,0-.3-.449A1.366,1.366,0,0,0,5.6-7.637a1.755,1.755,0,0,0-.637-.111H2.756v2.756H4.992A1.6,1.6,0,0,0,6.1-5.343,1.294,1.294,0,0,0,6.487-6.357Z" transform="translate(8611 4033)" fill="none" stroke="#000" stroke-linecap="round" stroke-width="2"/>
      <path id="パス_1731" data-name="パス 1731" d="M9.282,0H7.6L5.681-6.357,3.757,0H2.08L.221-9.217h1.6L3.107-2.808l1.9-6.266h1.4L8.268-2.808,9.581-9.217h1.534Z" transform="translate(8558 4033)" fill="none" stroke="#000" stroke-linecap="round" stroke-width="2"/>
    </g>
    <g id="グループ_651" data-name="グループ 651">
      <path id="パス_1733" data-name="パス 1733" d="M6.552,0l-.6-1.768H2.288L1.69,0H0L3.237-9.217H5.07L8.307,0ZM4.121-7.163,2.808-3.276H5.434Z" transform="translate(8534 4097)" fill="#d0d0d0"/>
      <path id="パス_1734" data-name="パス 1734" d="M7.787-2.743a2.666,2.666,0,0,1-.214,1.118,2.744,2.744,0,0,1-.552.806,3.02,3.02,0,0,1-1.294.761A5.62,5.62,0,0,1,4.108.169,5.107,5.107,0,0,1,2.645-.046,3.3,3.3,0,0,1,1.352-.78a3.077,3.077,0,0,1-.689-.93A2.706,2.706,0,0,1,.39-2.925H2.106a1.472,1.472,0,0,0,.137.631,1.741,1.741,0,0,0,.344.5,1.465,1.465,0,0,0,.722.4,3.665,3.665,0,0,0,.825.1,3.636,3.636,0,0,0,.91-.11,1.412,1.412,0,0,0,.689-.383,1.832,1.832,0,0,0,.26-.358,1.1,1.1,0,0,0,.1-.526.9.9,0,0,0-.332-.76,1.747,1.747,0,0,0-.76-.332A8.5,8.5,0,0,0,3.978-3.9q-.559-.039-1.014-.117a3.471,3.471,0,0,1-.9-.273A2.548,2.548,0,0,1,1.319-4.8,2.368,2.368,0,0,1,.813-5.57,2.613,2.613,0,0,1,.624-6.591a2.26,2.26,0,0,1,.221-1,3.014,3.014,0,0,1,.585-.819A3.145,3.145,0,0,1,2.6-9.126a4.455,4.455,0,0,1,1.534-.26,4.472,4.472,0,0,1,1.424.227,3.055,3.055,0,0,1,1.15.67,3.221,3.221,0,0,1,.67.884,2.451,2.451,0,0,1,.266,1.079H5.928A1.327,1.327,0,0,0,5.8-7.014a1.593,1.593,0,0,0-.28-.423A1.453,1.453,0,0,0,4.9-7.8a2.536,2.536,0,0,0-.78-.13,3.241,3.241,0,0,0-.8.1,1.43,1.43,0,0,0-.7.4,1.324,1.324,0,0,0-.228.338,1.045,1.045,0,0,0-.084.442.9.9,0,0,0,.26.7,1.253,1.253,0,0,0,.676.306q.442.065.995.117t1.008.117a3.879,3.879,0,0,1,.981.28,2.72,2.72,0,0,1,.806.533,2.426,2.426,0,0,1,.546.8A2.638,2.638,0,0,1,7.787-2.743Z" transform="translate(8560 4097)" fill="#d0d0d0"/>
      <path id="パス_1735" data-name="パス 1735" d="M8.333-4.615q0,.481-.032.968a5.417,5.417,0,0,1-.149.955,4.521,4.521,0,0,1-.332.9,3.158,3.158,0,0,1-.565.8,2.968,2.968,0,0,1-1.125.734A4.1,4.1,0,0,1,4.667,0H1.079V-9.217H4.667a4.1,4.1,0,0,1,1.463.253,2.968,2.968,0,0,1,1.125.734,3.2,3.2,0,0,1,.565.793,4.369,4.369,0,0,1,.332.9,5.417,5.417,0,0,1,.149.956Q8.333-5.1,8.333-4.615Zm-1.7,0q0-.312-.013-.663a4.68,4.68,0,0,0-.078-.7,3.286,3.286,0,0,0-.2-.656,1.721,1.721,0,0,0-.377-.559A1.8,1.8,0,0,0,5.4-7.566a1.835,1.835,0,0,0-.734-.143H2.756v6.2H4.667A1.835,1.835,0,0,0,5.4-1.651a1.8,1.8,0,0,0,.566-.377,1.721,1.721,0,0,0,.377-.559,3.286,3.286,0,0,0,.2-.657,4.7,4.7,0,0,0,.078-.7Q6.63-4.3,6.63-4.615Z" transform="translate(8585 4097)" fill="#d0d0d0"/>
      <path id="パス_1736" data-name="パス 1736" d="M2.756-7.7v2.47H6.942V-3.7H2.756V0H1.079V-9.217h6.37V-7.7Z" transform="translate(8612 4097)" fill="#d0d0d0"/>
      <path id="パス_1737" data-name="パス 1737" d="M6.344,0,4.81-3.484H2.769V0H1.079V-9.217H4.966a3.84,3.84,0,0,1,1.423.24,2.919,2.919,0,0,1,1,.637,2.486,2.486,0,0,1,.585.91,3.088,3.088,0,0,1,.189,1.073A2.82,2.82,0,0,1,7.7-4.738a2.507,2.507,0,0,1-1.228.968L8.164,0Zm.143-6.357a1.374,1.374,0,0,0-.1-.527,1.357,1.357,0,0,0-.3-.449A1.366,1.366,0,0,0,5.6-7.637a1.755,1.755,0,0,0-.637-.111H2.756v2.756H4.992A1.6,1.6,0,0,0,6.1-5.343,1.294,1.294,0,0,0,6.487-6.357Z" transform="translate(8611 4033)" fill="#d0d0d0"/>
      <path id="パス_1738" data-name="パス 1738" d="M9.282,0H7.6L5.681-6.357,3.757,0H2.08L.221-9.217h1.6L3.107-2.808l1.9-6.266h1.4L8.268-2.808,9.581-9.217h1.534Z" transform="translate(8558 4033)" fill="#d0d0d0"/>
    </g>
    <path id="Arrow" d="M9.658,4.431,3.727,0V2.321H0V6.564H3.727V8.885Z" transform="translate(8611 4052.159) rotate(-90)" fill="none" stroke="#fff" stroke-width="0.5"/>
    <path id="Arrow-2" data-name="Arrow" d="M9.658,4.431,3.727,0V2.321H0V6.564H3.727V8.885Z" transform="translate(8559 4052.659) rotate(-90)" fill="#fff"/>
    <path id="Arrow-3" data-name="Arrow" d="M9.658,4.431,3.727,0V2.321H0V6.564H3.727V8.885Z" transform="translate(8619.885 4068.5) rotate(90)" fill="none" stroke="#fff" stroke-width="0.5"/>
    <path id="Arrow-4" data-name="Arrow" d="M9.658,4.431,3.727,0V2.321H0V6.564H3.727V8.885Z" transform="translate(8567.885 4069) rotate(90)" fill="#fff"/>
    <path id="Arrow-5" data-name="Arrow" d="M9.658,4.431,3.727,0V2.321H0V6.564H3.727V8.885Z" transform="translate(8541.658 4077.885) rotate(180)" fill="#fff"/>
    <path id="Arrow-6" data-name="Arrow" d="M9.658,4.431,3.727,0V2.321H0V6.564H3.727V8.885Z" transform="translate(8584.671 4069)" fill="#fff"/>
  </g>
</svg>
