<svg xmlns="http://www.w3.org/2000/svg" width="13" height="9.75" viewBox="0 0 13 9.75">
  <path id="パス_1932" data-name="パス 1932" d="M11.781,0A1.219,1.219,0,0,0,13-1.219V-8.531A1.219,1.219,0,0,0,11.781-9.75H1.219A1.219,1.219,0,0,0,0-8.531v7.312A1.219,1.219,0,0,0,1.219,0ZM2.844-8.328A1.422,1.422,0,0,1,4.266-6.906,1.422,1.422,0,0,1,2.844-5.484,1.422,1.422,0,0,1,1.422-6.906,1.422,1.422,0,0,1,2.844-8.328Zm-1.219,6.7V-2.844L3.441-4.66a.3.3,0,0,1,.431,0l1.41,1.41L8.722-6.691a.3.3,0,0,1,.431,0l2.222,2.222v2.844Z" transform="translate(0 9.75)" fill="#3d3d3d"/>
</svg>
