<svg xmlns="http://www.w3.org/2000/svg" width="1304.598" height="109.418" viewBox="0 0 1304.598 109.418">
  <g id="グループ_690" data-name="グループ 690" transform="translate(-99.515 -413.928)">
    <path id="パス_1878" data-name="パス 1878" d="M127.164,491.815c-.9,0-1.546.771-2.061,1.8-9.4,17.374-18.787,21.537-20.925,22.605-1.314.656-3.915,1.528-4.571.618-.485-.672,1.063-1.53,2.089-2.279,8.981-6.562,17.61-21.074,19.8-29.956.129-.64.258-.9.515-.9a3.28,3.28,0,0,1,.9.258c.644.129,7.987,2.7,7.987,5.531,0,1.288-1.546,2.319-3.478,2.319Zm5.8,28.443c.129-7.081.644-21.108.644-31.919,0-4.245-.129-7.981-.258-10.682l-.386-3.86-16.479,2.6c-.644.129-1.546,2.317-2.7,2.317-2.321,0-4.122-8.236-4.122-8.365,0-.644.384-.644.771-.644a27.03,27.03,0,0,0,3.48.129c2.7,0,7.2-.159,11.2-.417,7.083-10.811,17-28.314,19.321-36.293.258-1.031.129-1.417.9-1.417,2.321,0,9.275,3.345,9.275,6.179,0,1.155-1.417,1.928-3.349,1.928-1.159.129-1.932.258-3.092,2.061-4.122,7.077-12.109,19.176-17.646,27.026,5.795-.644,11.98-1.415,17.262-2.188a21.035,21.035,0,0,0-4.871-6.9c-.785-.614-1.314-1.576-.678-2.411.666-.878,2.52.08,3.134.38a23.852,23.852,0,0,1,7.695,6.745c7.461-9.325,21.807-34.61,23.612-47.1.129-.9.234-1.363.876-1.363,2.19,0,10.4,2.393,10.4,5.225,0,1.157-1.419,1.93-3.478,2.188-1.417.129-1.932,1.159-2.574,2.446l-4.1,7.584h13.137c1.548,0,2.063-.644,2.963-1.546.773-.644,1.417-1.417,2.321-1.417,1.415,0,7.212,4.376,7.212,6.566,0,1.157-1.031,2.186-3.092,2.83-1.675.515-2.19.258-2.961,2.19a107.539,107.539,0,0,1-10.821,19.689c8.5,9.909,24.659,18.769,39.159,19.82,1.56.113,2.912.706,2.912,1.48,0,1.268-2.391,1.506-3.037,1.634-1.546.258-7.349,1.648-10.309,4.094a1.513,1.513,0,0,1-.9.258c-2.832,0-18.417-6.306-30.912-22.91-7.729,10.167-17.391,19.562-28.725,25.871,3.607,4.247,4.251,6.819,4.251,8.878,0,2.832-1.417,4.891-3.221,4.891-1.159,0-2.345-1.031-3.247-3.861a40.381,40.381,0,0,0-9.287-15.535c-1.822-1.8-1.733-2.935-1.2-3.412.463-.411,1.846-.117,3.667.942a37.519,37.519,0,0,1,5.553,4.362c11.207-6.306,21.126-16.73,28.467-27.283a64.3,64.3,0,0,1-7.6-16.6,132.347,132.347,0,0,1-16.36,24.067c1.288,3.216,1.417,4.247,1.417,5.149,0,2.959-1.546,5.02-3.092,5.02-1.288,0-2.576-1.288-3.349-4.247a21.89,21.89,0,0,0-1.159-3.861l-8.631,1.8c.644.258.9.515.9.9,0,.515-.515,1.159-1.417,1.675a2.153,2.153,0,0,0-1.286,2.057c-.129,2.959-.129,6.179-.129,9.525,0,11.068.386,23.809,1.029,33.463a3.832,3.832,0,0,1-3.993,3.345c-1.673,0-3.09-.9-3.09-2.83Zm.966-106.322c.783.068,9.533,2.188,9.533,4.891,0,1.157-1.159,2.059-3.347,2.317-1.031,0-1.548.644-2.063,1.93-2.961,7.077-8.953,18.471-11.658,23.618a6.658,6.658,0,0,1,3.557,5.763c0,2.186-1.377,3.384-2.8,3.384a4.125,4.125,0,0,1-3.557-1.989,26.77,26.77,0,0,0-9.826-9.217c-1.7-.859-1.86-2.057-1.52-2.9.447-1.117,1.7-.874,3.063-.572a37.727,37.727,0,0,1,7.343,3.088c2.834-6.435,9.6-21.817,10.112-29.153C132.9,414.194,133.146,413.868,133.927,413.936Zm54.663,104.2c-7.214-7.932-16.05-13.745-19.458-15.116-.731-.294-1.83-.868-1.542-2.051.209-.867,1.938-.65,2.516-.574,1.137.149,26,7.1,27.905,16.066a3.408,3.408,0,0,1-2.917,4.293C192.759,520.968,190.817,520.29,188.591,518.132Zm-.242-21.941c-4.251-5.664-12.051-11.632-13.009-12.224-.717-.443-1.552-1.415-1.194-2.224.483-1.093,2.774-.234,3.363-.022.709.254,17.793,5.461,17.793,13.7,0,2.059-1.031,3.474-2.7,3.474C191.441,498.892,189.893,498.121,188.349,496.191Zm-13.011-57.916-.515,1.029a56.277,56.277,0,0,0,7.729,17.376c6.054-9.78,8.631-16.99,8.631-17.763,0-.642-.646-.642-1.29-.642Z" transform="translate(0 0)" fill="#cbd5c8"/>
    <path id="パス_1879" data-name="パス 1879" d="M183.161,457.95a31.174,31.174,0,0,0,1.135-3.78,8.277,8.277,0,0,0,.127-1.765,7.6,7.6,0,0,0-1.64-4.79,9.611,9.611,0,0,1-2.144-5.543c0-6.177,9.08-6.205,12.522-5.5,2.051.421,9.655,2.144,13.361,2.689.33.048,1.236.205,1.3.177a.247.247,0,0,0,.072-.326,2.583,2.583,0,0,0-.435-.238c-2.568-1.023-9.261-4.921-11.564-6.081-2.456-1.185-4.49-3.068-4.658-5.076a8.654,8.654,0,0,1,2.977-7.731c.584-.566,2.528-.948,2.7.878s-1.186,4.442.634,6.685a37.686,37.686,0,0,0,11.928,6.312c10.925,3.492,11.686,5.211,12.618,7.411a3.487,3.487,0,0,1-1.61,4.547,4.681,4.681,0,0,1-2.87-.25c-6.107-3.919-12.514-4.823-26.384-6.278-3.261-.344-6.052,1.268-6.052,3.16,0,.88.63,2.015,2.017,3.528,2.9,3.023,3.909,5.04,3.909,6.93a7.367,7.367,0,0,1-1.133,3.655c-1.262,2.017-6.56,12.477-6.56,20.291a13.167,13.167,0,0,0,2.146,7.435c.127.378.378.755.63.755.127,0,.378-.125.632-.5,8.323-9.577,23.157-18.4,36.907-18.4,13.317,0,23.819,5,23.819,17.439,0,5.042-.233,24.908-50.257,28.684-2.7.205-4.861-.089-4.859-.948,0-.652.892-1.238,2.623-1.447,31.071-3.758,45.322-12.349,45.322-26.591,0-7.938-8.45-12.727-16.9-12.727-15.893,0-31.865,15.754-33.881,23.568-.252,1.009-.505,2.015-1.135,2.393a1.9,1.9,0,0,1-1.389.505c-3.784,0-8.7-10.585-8.7-17.519,0-3.907.882-9.072,3.154-16.634Z" transform="translate(79.862 5.66)" fill="#cbd5c8"/>
    <path id="パス_1880" data-name="パス 1880" d="M274.239,432.663a4.886,4.886,0,0,1,3.279-1.262c1.135,0,3.911.252,3.911,2.393,0,2.649-7.053,5.523-14.116,8.168-6.558,12.856-18.878,32.352-26.068,50.624-1.514,3.655-4.285,4.982-6.558,4.982-1.512,0-2.649-.882-2.649-2.9,0-1.389.632-3.406,2.27-6.05,7.693-12.351,20.265-30.274,26.573-44.01-4.162,1.51-10.394,3.325-15.189,3.325-6.521,0-13.065-6.507-13.065-9.629,0-1.131.376-1.888,1.385-1.888a6.252,6.252,0,0,1,2.778,1.008c2.4,1.512,7.314,4.913,12.359,4.913,4.289,0,9.587-1.763,14.255-3.78.378-.757,3.6-6.749,3.573-8.637-.04-3.251-3.9-4.819-6.4-5.173-2.166-.306-3.844-.771-3.559-2.174.328-1.606,2.125-1.584,4.571-1.586,2.919,0,8.508,1.085,10.2,2.128s2.88,2.52,2.88,3.907-1.807,4.478-2.818,6.366l-.884,1.64c.254-.127,1.306-.759,1.828-1.131S274.239,432.663,274.239,432.663ZM315.628,461.7c-14.367-3.112-27.754-.078-27.754,11.9a20.225,20.225,0,0,0,.884,5.416c.755,2.4,1.512,4.412,2.017,6.429a17.858,17.858,0,0,1,.757,5.292,91.4,91.4,0,0,1,21.317,7.435c2.9,1.514,4.036,3.782,4.036,5.545a3.172,3.172,0,0,1-3.279,3.529,7.337,7.337,0,0,1-4.794-2.015A64.354,64.354,0,0,0,291.4,495.65c-1.64,8.444-8.071,12.477-15.513,12.477-9.462,0-18.671-6.554-18.671-11.72,0-4.158,5.173-7.938,17.03-7.938a68.4,68.4,0,0,1,11.1,1.008c-.254-8.892-1.95-8.089-2.272-13.991s1.711-13.812,15.472-17.916c3.792-1.131,11.268-.658,12.155-.572,2.309.223,1.343-.849.829-1.3-4.829-4.269-12.837-8.7-17.33-10.567-1.047-.435-2.639-1.164-2.474-1.771.149-.552,1.534-.537,3.094-.127,23.117,6.091,31.444,12.381,28.254,17.68-.779,1.3-2.359,2.264-5.165,1.526-.487-.129-.944-.378-1.431-.507Zm-42.512,30.673c-7.443,0-11.227,1.512-11.227,3.78,0,3.023,7.695,6.93,12.993,6.93,4.919,0,9.082-2.772,10.217-9.323A54.5,54.5,0,0,0,273.116,492.375Z" transform="translate(134.219 7.154)" fill="#cbd5c8"/>
    <path id="パス_1881" data-name="パス 1881" d="M309.71,455.044c0,1.765.127,5.652.252,8.045,1.01,14.617,9.973,21.879,13.252,21.879,1.008,0,1.638-.757,2.649-2.649,2.878-6.262,12.012-20.927,17.376-26.269,1.01-1.226,2.073-1.693,2.671-1.339.523.354.417,1.214-1.1,3.42-7.216,10.481-12.137,25.138-12.346,28.028a3.234,3.234,0,0,0,.427,2.007,5.563,5.563,0,0,1,.66,3.53c-.248,2.254-2.522,3.023-4.416,3.023-7.441,0-23.207-8.317-25.353-31.128-.5-4.662-.5-10.943-.5-14.848,0-1.262.127-2.637.127-3.772,0-4.41-1.01-6.719-3.911-8.736-1.262-.882-4.285-3.518-5.034-4.14-.493-.411-1.135-1.129-.733-1.789s2.351-.308,3.126-.048c2.246.755,8.844,1.133,12.244,4.207,2.937,2.655,1.864,6.785,1.864,9.051,0,.757-.368,2.343-.835,5.008A40.277,40.277,0,0,0,309.71,455.044Zm70.639,17.5a11.8,11.8,0,0,0-3.492-.92c-.376-.046-8.019-1.326-10.167-1.586-2.212-.268-2.884-.562-2.921-1.218-.042-.771.708-.876,1.779-1.014,1.7-.219,8.049-.535,11.553-1.105,2.081-.37,3.059-1.218,3-2.349-.463-8.033-4.3-12.469-16.35-18.177-1.64-.628-2.045-1.125-2.045-2.009,0-1.26,1.194-1.256,2.85-.825,6.181,1.606,25.621,9.019,25.621,23.387,0,3.553-2.762,7.075-6.544,7.075A6,6,0,0,1,380.349,472.542Z" transform="translate(196.567 16.206)" fill="#cbd5c8"/>
    <path id="パス_1882" data-name="パス 1882" d="M384.011,437.374c-1.592.63-2.1,1.509-2.1,2.518v.378c.254,4.917.505,9.706.505,14.621,0,24.447-7.067,50.151-26.225,61.992-.592.592-3,1.308-3.482.662-.668-.9.107-1.465.783-2.138,16.988-13.987,22.239-34.682,22.239-58.123a148.585,148.585,0,0,0-2.649-27.6,1.6,1.6,0,0,0-.127-.757c.127-.376.252-.755.757-.755,1.389,0,8.325,2.772,10.6,4.662h27.66a65.442,65.442,0,0,0-1.389-15.752c0-.252-.127-.63-.127-.884,0-.376.127-.63,1.01-.63,1.008,0,12.147.757,12.147,3.4,0,1.008-1.638,2.268-3.784,3.277-1.135.5-1.512,1.008-1.512,10.585H440.15a4.7,4.7,0,0,0,3.784-1.765,46.055,46.055,0,0,1,3.53-4.281c1.135-1.01,1.894-1.514,2.649-1.514,3.154,0,10.217,7.057,10.217,10.08,0,1.135-1.008,2.019-2.824,2.019Zm85.829,73.6c-.022.711-.779,1.341-2.214,2.071a38.059,38.059,0,0,0-6.811,5.376,2.7,2.7,0,0,1-1.92.825c-5.308.344-10.738.431-15.907.274-23.2-.7-36.138-5.646-44.338-16.106-12.107,14.746-25.889,16.316-28.1,16.594-1.377.173-3.436.294-3.436-.839,0-.63,1.658-1.135,2.415-1.387,12.487-4.158,20.086-11.294,26.013-19.232a35.224,35.224,0,0,1-3.261-9.931c-1.135,2.649-4.768,6.054-4.953,7.554-.2,1.626-.5,2.987-2,2.8-2.5-.308-5.616-3.148-5.96-3.444-.205-.407-.425-.686-.395-.938s.187-.483.719-.672c4.517-2.619,10.7-9.71,10.7-12.862a2.972,2.972,0,0,1,3.154-3.15,3.275,3.275,0,0,1,3.406,3.275c0,1.514-.884,2.144-.884,3.406v.755c.63,3.653.932,5.712,2.319,8.736a56.99,56.99,0,0,0,7.7-21.666v-.378c0-.378-.127-.632-1.008-.632h-7.947l-.767,1.176a5.39,5.39,0,0,1-4.541,2.266c-1.389,0-2.522-.5-2.522-1.636a3.682,3.682,0,0,1,.755-1.892c1.767-2.645,10.732-17.429,10.732-18.816,0-.252-.125-.378-.63-.378h-2.4a37.168,37.168,0,0,0-6.811.757c-2.27.5-5.674-4.034-5.674-5.42,0-.378.125-.628.628-.628h.252a106.172,106.172,0,0,0,11.73,1.006h2.146c1.514,0,1.638-.378,2.649-1.258.757-.757,1.262-1.387,2.146-1.387,1.763,0,6.685,3.528,6.685,5.418,0,.882-.884,1.763-3.027,2.52-1.767.63-1.767.63-9.082,14.114h5.3c1.765,0,1.765-.5,3.027-1.512a2.855,2.855,0,0,1,1.892-.882,4.365,4.365,0,0,1,1.638.379c1.64.757,5.424,3.15,5.424,4.788a1.8,1.8,0,0,1-.252.757c4.414.376,8.071.5,11.731.5H429.3c0-.127,0-10.334-.632-15.376a131.3,131.3,0,0,1-14.82,1.8c-1.077,0-2.558.036-2.558-.916,0-.616.805-.769,1.987-.86,11.1-.849,28.986-8.959,31.194-10.952.378-.342.9-1.189,1.743-1.043a3.389,3.389,0,0,1,1.491.747c2.019,1.892,4.676,4.8,4.676,7.194a1.725,1.725,0,0,1-1.892,1.89,4.986,4.986,0,0,1-2.774-1.008,3.339,3.339,0,0,0-1.892-.757,12.132,12.132,0,0,0-2.146.505c-1.765.378-3.909,1.008-6.558,1.514.63.376.882.755.882,1.131,0,.632-.63,1.262-1.765,1.765-1.389.757-1.514.884-1.514,14.367h7.393c2.017,0,2.649-.5,3.532-1.763,4.163-4.664,4.793-5.042,5.547-5.042,3.156,0,9.208,6.429,9.208,9.327,0,1.008-.884,1.763-2.9,1.763H434.6c0,6.681.127,14.241.127,19.534h6.411a3.638,3.638,0,0,0,3.406-1.64c1.514-1.888,3.911-5.04,5.173-5.04,3.152,0,8.7,6.932,8.7,9.2,0,1.008-.759,1.765-2.649,1.765H429.3c-3.532,0-6.687.5-13.5,1.385-2.144.379-5.8-4.913-5.8-6.427,0-.378.127-.505.378-.505h.127a126.346,126.346,0,0,0,17.66,1.262h1.008c0-3.528.127-11.972.127-19.534a135.1,135.1,0,0,0-14.633,1.133h-.252a4.811,4.811,0,0,1-2.4-1.387c-1.765,6.3-4.414,15.378-10.344,24.073,4.162,5.167,13.914,12.246,35.979,12.916a178.842,178.842,0,0,0,29.278-1.779C468.558,510.255,469.858,510.4,469.84,510.969Z" transform="translate(256.176 1.662)" fill="#cbd5c8"/>
    <path id="パス_1883" data-name="パス 1883" d="M465.851,434.939a6.742,6.742,0,0,1,3.448,5.628c0,5.443-13.272,24.375-21.6,34.076-2.017,2.522-4.134,3.927-6.276,3.927-3.406,0-13.061-3.06-13.061-16.167,0-18.021,19.566-31.935,40.514-31.935,24.091,0,41.357,11.853,41.357,29.689,0,29.218-32.742,40.357-57.069,39.179-4.537-.219-6.652-.376-6.6-1.53.034-.864.733-1.119,4.261-1.264,23.046-.954,50.99-10.213,50.99-36.629,0-14.152-11.871-24.975-34.451-24.975Zm-31.3,26.331c0,7.94,4.953,9.758,9.186,9.758,3.152,0,19.365-22.692,19.365-30.631a15.08,15.08,0,0,0-1.661-5.08C445.655,437.558,434.546,450.084,434.546,461.271Z" transform="translate(333.056 16.753)" fill="#cbd5c8"/>
    <path id="パス_1884" data-name="パス 1884" d="M492.77,506.673c-1.3,0-2.6-.916-1.972-2.154.676-1.337,2.562-1.516,5.418-2.741,15.305-6.566,27.116-24.526,28.948-44.086.223-2.383-1.2-4.917-3.726-7.069-1.439-1.228-1.294-2.552,1.059-2.242,2.854.376,7.874,2.834,10.285,4.581A3.7,3.7,0,0,1,534.3,454.6a51.02,51.02,0,0,0,17.586-10.255,19.209,19.209,0,0,0,5.5-8.738c.415-1.246.282-1.89-.028-2.2-.268-.268-.827-.25-1.459-.25-12.488.378-40.765,4.35-49.847,5.986-.755.127-6.445.71-8.53-.62-3.048-1.946-8.581-7.785-9.287-11.016-.294-1.355.868-1.928,2.5-1.091,1.9,1.067,8.665,6.125,15.7,6.173,6.056.044,41.588-4.277,50.67-4.78a4.155,4.155,0,0,0,2.019-.884,4.787,4.787,0,0,1,3.279-1.763c1.767,0,9.035,2.49,9.035,5.139,0,1.258-.68,2.172-2.953,3.305-1.073.509-2.381,1.19-3.766,4.036-4.448,9.144-16.289,17.634-30.616,21.026C522.581,497.66,498.826,506.673,492.77,506.673Z" transform="translate(393.644 11.379)" fill="#cbd5c8"/>
    <path id="パス_1885" data-name="パス 1885" d="M593.889,454a276.564,276.564,0,0,0-35.373,1.888c-3.027.378-8.45,1.179-10.445.884-3.219-.477-9.146-6.362-10.5-10.97-.64-2.176,1.411-2.2,2.653-1.411,5.1,3.124,10.094,5.72,13.625,5.847,5.93,0,42.921-2.057,59.919-3.178,7.976-.523,12.938.386,12.646,3.379-.147,1.5-4.871,4.054-10.416,4.018S600.851,454.029,593.889,454Z" transform="translate(443.536 30.374)" fill="#cbd5c8"/>
    <path id="パス_1886" data-name="パス 1886" d="M668.458,449.787c-5.326.268-18.944,2.884-25.126,3.516-9.458,37.263-37.208,52.995-47.033,55.364-1.349.324-3.883.729-3.883-.664,0-1.073,1.876-1.628,4.67-3.068,17.578-9.048,32.628-26.231,39.31-50.751-6.811.884-15.764,2.391-19.8,3.021a31.626,31.626,0,0,1-3.406.378c-7.159.707-10.165-7.669-10.927-10.5-.558-2.071,1.059-2.369,2.286-1.651,2.118,1.24,8.341,6.051,11.542,6.1,2.9.05,13.307-1.266,21.565-2.393a110.122,110.122,0,0,0,1.723-14.389c.248-5.493-3.313-7.484-6.527-8.927-1.693-.763-3.3-1.449-3.09-2.5.207-1.031,2.178-1.139,5.038-.662,3.388.564,10.056,3.279,11.181,4.221a3.9,3.9,0,0,1,1.389,4.158c-.459,1.856-2.019,13.687-2.9,17.216,6.306-.628,19.679-2.945,23.36-3.639a3.541,3.541,0,0,0,2.144-1.514,2.966,2.966,0,0,1,2.271-1.008,14,14,0,0,1,8.75,4.2c.851,1.095-.072,2.162-.8,2.609-.689.423-1.731,1.049-2.425,1.56a3.052,3.052,0,0,0-1.234,1.969c-1.008,4.917-3.555,14.691-5.495,22.086-4.052,15.428-12.179,29.916-23.26,29.916-7.568,0-12.693-7.031-14.492-8.6-.6-.519-.861-1.191-.682-1.513.229-.411.773-.266,1.783.034,1.8.533,8.411,4.134,12.069,4.134,7.152,0,12.995-6.431,18.387-25.7,1.512-6.713,4-15.571,4.627-21.873,0-.884-.127-1.135-.632-1.135Z" transform="translate(499.206 8.576)" fill="#cbd5c8"/>
    <path id="パス_1887" data-name="パス 1887" d="M703.143,500.726c0,4.79-.642,9-3.669,9-2.647,0-4.947-2.319-4.947-7.234a28.342,28.342,0,0,1,.757-6.051c1.011-4.66,1.922-9.523,2.3-30.19a22.213,22.213,0,0,0-1.133-7.562c-16.012,19.007-34.558,29.165-45.65,31.9-1.32.326-3.021.457-3.021-.173,0-1.236,1.2-1.345,3.329-2.26,24.548-10.551,47.3-38.664,51.8-55.5.519-1.946-1.2-3.373-2.886-4.5-1.387-.924-3.1-2.109-2.711-3.44s2.548-.888,5.388-.3c6.266,1.3,12.143,4.456,12.143,7.228,0,.757-.378,2.017-3.281,5.294a35.164,35.164,0,0,0-2.774,3.907,166.771,166.771,0,0,1-9.311,13.938c2.144,1.514,4.921,4.537,4.921,7.186a3.489,3.489,0,0,1-.378,1.636c-.759,1.641-1.359,10.839-1.359,19.786,0,8.192.485,13.935.485,15.573Z" transform="translate(555.274 10.044)" fill="#cbd5c8"/>
    <path id="パス_1888" data-name="パス 1888" d="M714.16,467.828c-3.154-22.938-4.794-21.012-10.6-24.1-1.222-.67-3.388-1.522-2.735-2.784s3.883-.678,5.994-.262c4.587.9,8.43,2.774,9.943,6.68a21.112,21.112,0,0,0,6.306.757c3.408,0,11.584-.378,14.357-.63.127-1.387.127-3.557.127-13.514a9.325,9.325,0,0,0-5.344-8.321c-2.2-1.149-3.621-1.912-3.367-2.985.312-1.318,2.119-.94,4.341-.393.98.242,8.9,2.538,10.511,3.269s2.611,1.741,2.611,3a10.324,10.324,0,0,1-1.059,3.663c-.88,3.025-1.133,8.85-1.385,14.772,5.8-.5,15.291-1.274,17.153-1.512a5.5,5.5,0,0,0,3.074-1.522,4.4,4.4,0,0,1,2.554-1.125c2.794-.169,9.13,4.285,9.13,6.554,0,.882-.757,2.017-2.651,3.15a2.255,2.255,0,0,0-.88.632,9.129,9.129,0,0,0-2.021,2.266c-6.26,37.937-33.8,50.833-49.013,53.713-1.121.211-5.423,1.188-5.475-.364-.044-1.349,2.011-1.566,5.589-2.78,21.619-7.335,36.315-22.785,41.635-54.728,0-.252,0-.378-.505-.378-.632,0-32.949,2.4-36.353,2.774-1.64.127-3.029.254-4.038.254a11.457,11.457,0,0,1-3.784-.505c1.892,9.072,3.573,20.712,3.573,24.492,0,1.133-.37,3.714-3.4,3.79-1.737.044-4.99-.032-4.15-9.1A24.787,24.787,0,0,0,714.16,467.828Z" transform="translate(608.876 7.952)" fill="#cbd5c8"/>
    <path id="パス_1889" data-name="パス 1889" d="M745.805,437.691a28.522,28.522,0,0,0-9.5-8.872c-1.05-.543-1.344-1.278-1-2.119s1.391-.759,2.248-.507c1.033.3,14.546,4.048,14.532,10.517a2.913,2.913,0,0,1-3.114,3.11A4.817,4.817,0,0,1,745.805,437.691Z" transform="translate(643.78 12.246)" fill="#cbd5c8"/>
    <path id="パス_1890" data-name="パス 1890" d="M750.728,434.434a32.728,32.728,0,0,0-11.034-9.474,1.679,1.679,0,0,1-.833-2.242c.33-.787,1.606-.8,2.635-.556,1.6.372,9.462,2.51,14.17,7.884,1.1,1.258,1.8,3.732-.086,5.37C753.6,437.129,751.609,435.7,750.728,434.434Z" transform="translate(647.359 8.2)" fill="#cbd5c8"/>
  </g>
</svg>
