<svg width="26" height="23" viewBox="0 0 26 23" fill="none" xmlns="http://www.w3.org/2000/svg">
<path d="M22.0739 3.0703C20.0362 1.03257 16.9842 0 13.0092 0C9.03429 0 5.97313 1.03257 3.9354 3.0703C0.837681 6.17716 0.600098 10.8831 0.600098 15.4338V18.2665C0.600098 18.9518 1.14837 19.5001 1.8337 19.5001C2.51904 19.5001 2.9942 18.9975 3.04903 18.367H5.49796V22.0587C5.49796 22.3145 5.69899 22.5155 5.95485 22.5155H9.82928C10.0851 22.5155 10.2862 22.3145 10.2862 22.0587V12.3726C10.2862 12.1167 10.0851 11.9157 9.82928 11.9157H5.95485C5.69899 11.9157 5.49796 12.1167 5.49796 12.3726V15.8998H3.0673V15.4338C3.0673 11.3948 3.2592 7.25542 5.68072 4.82476C7.26156 3.24392 9.65566 2.47634 13.0001 2.47634C16.3445 2.47634 18.7478 3.24392 20.3195 4.82476C22.7501 7.25542 22.942 11.404 22.9329 15.4429V15.9089H20.5022V12.3817C20.5022 12.1259 20.3012 11.9248 20.0453 11.9248H16.1709C15.9151 11.9248 15.714 12.1259 15.714 12.3817V22.0678C15.714 22.3237 15.9151 22.5247 16.1709 22.5247H20.0453C20.3012 22.5247 20.5022 22.3237 20.5022 22.0678V18.3761H22.9512C23.006 19.0066 23.5177 19.5092 24.1665 19.5092C24.8518 19.5092 25.4001 18.9609 25.4001 18.2756V15.4429C25.4001 10.8923 25.1625 6.18629 22.0648 3.07944L22.0739 3.0703Z" fill="#ADADAD"/>
</svg>
